<svg xmlns="http://www.w3.org/2000/svg" width="730" height="272" viewBox="0 0 730 272" version="1.1"><path d="M 144.500 33 C 144.160 33.550, 143.078 34, 142.096 34 C 141.114 34, 139.461 34.938, 138.424 36.084 C 135.055 39.807, 136.847 49, 140.942 49 C 141.539 49, 142.980 49.563, 144.144 50.250 C 145.838 51.250, 146.352 51.250, 146.714 50.250 C 146.963 49.563, 148.186 49, 149.431 49 C 152.715 49, 155.732 42.236, 153.941 38.889 C 152.381 35.975, 151.068 34.642, 148.295 33.158 C 145.655 31.745, 145.285 31.730, 144.500 33 M 184.750 42.572 C 183.238 43.393, 182 44.725, 182 45.532 C 182 46.339, 181.550 47, 181 47 C 180.450 47, 180 48.125, 180 49.500 C 180 50.875, 180.450 52, 181 52 C 181.550 52, 182 52.682, 182 53.515 C 182 55.349, 187.695 58.991, 190.570 58.996 C 196.502 59.007, 199.272 48.181, 194.545 43.455 C 191.763 40.672, 188.753 40.401, 184.750 42.572 M 101.603 46.800 C 97.973 47.572, 95 51.639, 95 55.833 C 95 59.270, 95.381 59.915, 98.070 61.029 C 102.699 62.946, 106.633 62.458, 109.478 59.613 C 112.597 56.494, 112.687 53.291, 109.749 49.917 C 107.353 47.166, 104.684 46.145, 101.603 46.800 M 141.041 60.393 C 139.203 65.227, 142.143 69.936, 147 69.936 C 151.947 69.936, 154.875 65.433, 153.050 60.632 C 152.152 58.269, 151.534 58, 147 58 C 142.594 58, 141.834 58.305, 141.041 60.393 M 176 67 C 171.380 71.620, 175.354 78.719, 181.875 77.496 C 188.305 76.289, 190.095 71.183, 185.492 67.180 C 182.364 64.460, 178.611 64.389, 176 67 M 219.039 70.113 C 216.090 72.932, 215.842 73.611, 216.429 77.279 C 217.313 82.810, 220.354 85.338, 225.328 84.678 C 230.153 84.037, 231.931 81.709, 231.956 76 C 231.973 71.953, 231.626 71.274, 228.502 69.250 C 223.958 66.307, 222.923 66.401, 219.039 70.113 M 113.916 70.282 C 109.038 74.032, 111.906 81.400, 118.243 81.400 C 122.540 81.400, 125 79.117, 125 75.128 C 125 70.106, 118.080 67.080, 113.916 70.282 M 67.643 78.500 C 66.818 79.325, 65.711 80, 65.183 80 C 63.402 80, 62.770 87, 64.335 89.388 C 66.128 92.126, 74.143 95.070, 74.760 93.219 C 74.984 92.548, 75.815 92, 76.608 92 C 80.289 92, 80.568 79.909, 76.932 77.964 C 74.234 76.520, 69.341 76.802, 67.643 78.500 M 201.250 86.662 C 199.654 87.306, 199.617 94.217, 201.200 95.800 C 201.860 96.460, 204.098 97, 206.174 97 C 209.342 97, 210.194 96.526, 211.474 94.050 C 213.388 90.350, 213.382 89.525, 211.429 87.571 C 209.933 86.076, 204.013 85.547, 201.250 86.662 M 91.174 93.314 C 88.371 96.298, 88.426 98.830, 91.368 102.250 C 94.177 105.516, 96.825 105.743, 99.799 102.972 C 103.160 99.841, 103.538 96.634, 100.902 93.603 C 98.061 90.335, 94.084 90.217, 91.174 93.314 M 52.817 119.310 C 51.341 120.579, 49.840 122.790, 49.480 124.224 C 48.605 127.711, 51.586 134, 54.114 134 C 55.151 134, 56 134.450, 56 135 C 56 135.550, 56.900 136, 58 136 C 59.100 136, 60 135.550, 60 135 C 60 134.450, 60.707 134, 61.571 134 C 65.185 134, 68.542 127.283, 66.818 123.500 C 66.192 122.125, 65.301 121, 64.839 121 C 64.378 121, 64 120.373, 64 119.607 C 64 116.304, 56.542 116.106, 52.817 119.310 M 80.176 121.415 C 75.026 126.499, 79.880 134.540, 86.723 132.259 C 91.879 130.540, 92.283 122.520, 87.329 120.250 C 83.700 118.587, 82.910 118.716, 80.176 121.415 M 87.385 153.351 C 84.618 156.516, 83.975 158.851, 85.156 161.443 C 85.797 162.849, 86.924 164, 87.661 164 C 88.397 164, 89 164.450, 89 165 C 89 166.436, 93.187 166.174, 95.250 164.608 C 97.425 162.957, 97.639 155.496, 95.571 153.429 C 93.813 151.670, 88.896 151.624, 87.385 153.351 M 61.750 161.392 C 60.788 162.123, 60 163.233, 60 163.860 C 60 164.487, 59.550 165, 59 165 C 58.450 165, 58 166.595, 58 168.545 C 58 175.470, 65.143 179.070, 72.293 175.750 C 74.643 174.658, 74.985 173.915, 74.992 169.886 C 74.998 166.229, 74.454 164.726, 72.364 162.636 C 69.442 159.715, 64.693 159.158, 61.750 161.392 M 195.477 175.394 C 193.225 178.831, 194.484 182.784, 198.330 184.353 C 201.712 185.733, 205.978 184.562, 205.992 182.250 C 205.996 181.563, 206.450 181, 207 181 C 207.550 181, 208 180.105, 208 179.011 C 208 173.231, 198.662 170.533, 195.477 175.394 M 108.216 178.813 C 105.827 180.885, 104.925 185.137, 107.291 183.173 C 108.275 182.357, 108.621 182.622, 108.747 184.286 C 108.837 185.487, 109.384 186.628, 109.962 186.821 C 110.540 187.013, 110.752 187.592, 110.434 188.107 C 110.116 188.622, 109.003 188.021, 107.961 186.771 C 106.399 184.899, 106.061 184.797, 106.033 186.193 C 105.995 188.127, 109.629 191, 112.112 191 C 115.228 191, 118.320 187.540, 118.224 184.159 C 118.061 178.446, 112.230 175.331, 108.216 178.813 M 167.636 189.636 C 164.386 192.887, 164.278 195.973, 167.314 198.826 C 170.531 201.848, 175.305 201.710, 177.385 198.535 C 180.290 194.102, 179.321 190.848, 174.295 188.158 C 171.243 186.525, 170.607 186.666, 167.636 189.636 M 210.645 190.193 C 206.900 194.714, 207.089 199.056, 211.182 202.500 C 213.638 204.566, 215.035 205.043, 217.307 204.589 C 218.926 204.265, 220.632 204, 221.099 204 C 222.433 204, 225 198.377, 225 195.454 C 225 193.999, 224.069 191.502, 222.932 189.904 C 221.272 187.574, 220.115 187, 217.077 187 C 214.037 187, 212.768 187.630, 210.645 190.193 M 137.830 190.384 C 134.716 191.487, 133.362 196.191, 134.953 200.377 C 135.751 202.476, 136.604 202.997, 139.225 202.985 C 143.169 202.966, 144.182 202.318, 145.713 198.828 C 148.004 193.609, 143.213 188.478, 137.830 190.384 M 87.614 197.023 C 85.359 199.299, 85.049 206.226, 87.114 208.185 C 90.280 211.189, 94.038 212.457, 96.048 211.202 C 97.107 210.541, 98.654 210, 99.486 210 C 100.333 210, 101 209.119, 101 208 C 101 206.900, 101.450 206, 102 206 C 104.294 206, 102.538 199.395, 99.413 196.271 C 97.443 194.300, 89.830 194.785, 87.614 197.023 M 173.225 210.671 C 171.043 211.548, 168.968 217.785, 169.976 220.437 C 172.146 226.144, 179.924 229.062, 184 225.698 C 188.285 222.161, 189.027 217.251, 185.932 212.904 C 184.134 210.379, 183.253 210.010, 179.182 210.079 C 176.607 210.122, 173.926 210.389, 173.225 210.671 M 130.752 212.841 C 129.240 213.754, 128.003 215.063, 128.002 215.750 C 128.001 216.438, 127.550 217, 127 217 C 124.905 217, 125.964 224.048, 128.463 226.744 C 135.406 234.231, 147.003 225.038, 141.400 216.488 C 140.187 214.637, 134.214 210.506, 133.596 211.091 C 133.543 211.142, 132.263 211.929, 130.752 212.841" stroke="none" fill="#f6cdbf" fill-rule="evenodd"/><path d="M 236 138.500 L 236 166 242 166 L 248 166 248.049 148.750 L 248.097 131.500 254.937 148.500 L 261.776 165.500 265.224 165.801 C 267.199 165.973, 269.105 165.546, 269.686 164.801 C 270.244 164.085, 273.356 156.777, 276.601 148.560 L 282.500 133.621 283 149.560 L 283.500 165.500 289.250 165.800 L 295 166.100 295 138.506 L 295 110.912 287.750 111.206 L 280.500 111.500 273.402 128.765 C 269.498 138.261, 266.097 146.236, 265.846 146.488 C 265.594 146.739, 262.096 138.857, 258.072 128.972 L 250.755 111 243.377 111 L 236 111 236 138.500 M 391 138.500 L 391 166 397 166 L 403 166 403 138.500 L 403 111 397 111 L 391 111 391 138.500 M 411 138.500 L 411 166 428.500 166 L 446 166 446 161 L 446 156 434.500 156 L 423 156 423 133.500 L 423 111 417 111 L 411 111 411 138.500 M 600.563 111.898 C 599.933 112.918, 582 164.681, 582 165.481 C 582 165.766, 584.919 166, 588.487 166 L 594.974 166 596.737 160.001 L 598.500 154.003 608.167 154.001 L 617.833 154 619.746 159.750 L 621.659 165.500 627.829 165.798 C 631.223 165.961, 634.003 165.736, 634.007 165.298 C 634.010 164.859, 629.899 152.463, 624.870 137.750 L 615.727 111 608.423 111 C 604.405 111, 600.868 111.404, 600.563 111.898 M 640 138.500 L 640 166 646 166 L 652 166 652 138.500 L 652 111 646 111 L 640 111 640 138.500 M 314.500 125.492 C 301.410 130.088, 297.693 150.315, 307.963 161.066 C 316.255 169.747, 334.366 167.927, 339.556 157.892 C 341.606 153.928, 340.760 153, 335.096 153 C 331.580 153, 329.830 153.531, 328.500 155 C 325.675 158.122, 318.749 157.768, 316.073 154.365 C 312.098 149.313, 312.764 149, 327.500 149 L 341 149 340.994 144.750 C 340.974 129.164, 328.945 120.421, 314.500 125.492 M 357.500 125.441 C 353.011 127.097, 348 132.075, 348 134.880 C 348 136.319, 349.021 136.868, 352.610 137.360 C 356.589 137.905, 357.627 137.650, 360.187 135.496 C 363.697 132.543, 367.055 132.298, 369.345 134.829 C 372.801 138.648, 370.803 140.355, 361.676 141.381 C 350.130 142.678, 345.135 147.517, 346.309 156.269 C 346.706 159.226, 347.752 161.282, 349.783 163.097 C 354.765 167.549, 364.395 167.668, 369.181 163.336 C 370.996 161.693, 371.113 161.715, 371.660 163.806 C 372.161 165.722, 372.916 166, 377.617 166 L 383 166 382.998 150.750 C 382.997 133.632, 382.001 130.011, 376.410 126.785 C 372.072 124.283, 362.489 123.602, 357.500 125.441 M 464.500 125.222 C 455.768 128.318, 451.656 134.777, 451.591 145.500 C 451.519 157.397, 456.520 163.966, 467.296 166.131 C 474.821 167.642, 482.558 165.407, 486.894 160.468 C 488.602 158.522, 490 156.046, 490 154.965 C 490 153.257, 489.302 153, 484.655 153 C 480.580 153, 478.880 153.475, 477.500 155 C 474.837 157.943, 468.617 157.708, 465.455 154.545 C 460.553 149.644, 461.652 149.084, 476.750 148.778 L 490.500 148.500 490.208 143.128 C 489.897 137.402, 487.507 131.670, 484.173 128.655 C 479.679 124.591, 470.698 123.024, 464.500 125.222 M 516 124.669 C 515.175 125.008, 513.263 126.152, 511.750 127.211 C 509.009 129.130, 509 129.129, 509 127.016 C 509 125.067, 508.515 124.913, 503 125.112 L 497 125.328 497 145.664 L 497 166 503 166 L 509 166 509 152.455 C 509 139.406, 509.090 138.819, 511.455 136.455 C 514.453 133.456, 516.905 133.351, 520.365 136.073 C 522.986 138.134, 523 138.218, 523 152.073 L 523 166 529 166 L 535 166 534.998 150.750 C 534.997 134.049, 534.104 130.550, 528.864 126.711 C 526.176 124.741, 518.708 123.556, 516 124.669 M 551.741 125.429 C 546.777 127.201, 545.187 128.624, 543.373 132.920 C 542.174 135.760, 542.088 137.264, 542.955 140.196 C 544.394 145.063, 547.860 147.636, 554.811 148.998 C 563.029 150.609, 566 151.960, 566 154.086 C 566 158.395, 556.176 159.066, 553.951 154.909 C 553.037 153.201, 552.035 152.948, 547.189 153.202 C 542.143 153.466, 541.535 153.726, 541.807 155.500 C 542.795 161.937, 550.289 166.420, 560 166.384 C 571.024 166.344, 578 161.257, 578 153.258 C 578 146.414, 574.179 143.184, 563.500 141.002 C 554.095 139.080, 552.421 137.722, 555.571 134.571 C 557.943 132.200, 562.732 132.608, 565.322 135.403 C 567.247 137.479, 568.190 137.733, 572.274 137.273 C 578.028 136.624, 578.458 134.730, 574.001 129.654 C 569.393 124.405, 559.742 122.574, 551.741 125.429 M 607.476 127.250 C 606.435 130.073, 602 143.374, 602 143.675 C 602 143.854, 604.700 144, 608 144 C 611.300 144, 614 143.728, 614 143.396 C 614 142.168, 608.750 126, 608.351 126 C 608.123 126, 607.730 126.563, 607.476 127.250 M 316.923 135.923 C 315.315 137.531, 314 139.331, 314 139.923 C 314 140.603, 316.952 141, 322 141 C 326.400 141, 330 140.587, 330 140.082 C 330 137.826, 328.543 135.815, 325.928 134.463 C 321.863 132.361, 320.219 132.628, 316.923 135.923 M 468.357 133.970 C 466.275 134.831, 463 138.653, 463 140.223 C 463 140.650, 466.600 141, 471 141 C 479.641 141, 480.674 140.199, 477.250 136.153 C 475.164 133.688, 471.320 132.745, 468.357 133.970 M 363.966 148.922 C 358.981 149.899, 358 150.726, 358 153.952 C 358 157.024, 359.449 158, 364.009 158 C 367.341 158, 371 154.004, 371 150.365 C 371 147.829, 370.289 147.684, 363.966 148.922 M 107.209 183.250 C 106.470 184.142, 106.701 185.151, 108.014 186.771 C 109.027 188.021, 110.116 188.622, 110.434 188.107 C 110.752 187.592, 110.540 187.013, 109.962 186.821 C 109.384 186.628, 108.835 185.465, 108.743 184.235 C 108.546 181.622, 108.554 181.627, 107.209 183.250" stroke="none" fill="#FFFFFF" fill-rule="evenodd"/></svg>